# xmcd CD database file
#
# Track frame offsets:
#	150
#	22620
#	42440
#	65270
#	93338
#	118192
#	148001
#	170373
#	199787
#
# Disc length: 2992 seconds
#
# Revision: 3
# Processed by: cddbd v1.5.2PL0 Copyright (c) Steve Scherf et al.
# Submitted via: CDex 1.70beta3
#
DISCID=730bae09
DTITLE=The V.I.P. Club - Urban Life
DYEAR=2002
DGENRE=Acid Jazz
TTITLE0=Time Out
TTITLE1=Keep Going
TTITLE2=The Real Thing
TTITLE3=Nightride
TTITLE4=Criss Cross
TTITLE5=Rising Sun
TTITLE6=Urban Life
TTITLE7=Long Way Home
TTITLE8=After Hours
EXTD=YEAR: 2002
EXTT0=
EXTT1=
EXTT2=
EXTT3=
EXTT4=
EXTT5=
EXTT6=
EXTT7=
EXTT8=
PLAYORDER=
